:version 1.10
:name ASF
:units
  mass 1
  length 1
  angle deg
:documentation
  ASF file generated by Kaydara
:root
  axis xyz
  order  tx ty tz rx ry rz
  position 0 0 0
  orientation 0 0 0
:bonedata
  begin
    id 1
    name RightUpLegDummy
    direction -0.718183 -0.695806 0.00816078
    length 4.904
    axis 0 0 0 xyz
  end
  begin
    id 2
    name RightUpLeg
    direction -0.0736652 -0.994202 0.0783343
    length 17.4976
    axis -2.72909 -3.00389 -4.00133 xyz
    dof rx ry rz
  end
  begin
    id 3
    name RightLeg
    direction -0.0389037 -0.994596 -0.0962598
    length 16.5821
    axis 3.95836 -18.5909 -4.46993 xyz
    dof rx ry rz
  end
  begin
    id 4
    name RightFoot
    direction -0.311643 -0.412678 0.855906
    length 3.77069
    axis -1.99483 -18.8351 -3.27644 xyz
    dof rx ry rz
  end
  begin
    id 5
    name RightToes
    direction -0.317852 0.0389852 0.947339
    length 3.85082
    axis -2.00228 -18.1713 -3.25211 xyz
    dof rx ry rz
  end
  begin
    id 6
    name SpineDummy
    direction 8.3039e-015 1 4.44677e-016
    length 4.6813
    axis 0 0 0 xyz
  end
  begin
    id 7
    name Spine
    direction -0.000262373 0.999988 0.00493267
    length 10.1015
    axis -0.00246081 0.00062579 0.0150362 xyz
    dof rx ry rz
  end
  begin
    id 8
    name Spine1
    direction 0 0 0
    length 0
    axis -0.00349562 0.000650293 0.0196666 xyz
    dof rx ry rz
  end
  begin
    id 9
    name HEadDummy
    direction -0.000343232 0.999999 0.00123745
    length 3.43865
    axis -0.00349562 0.000650293 0.0196666 xyz
  end
  begin
    id 10
    name HEad
    direction -0.0461221 0.980933 0.188796
    length 5.12695
    axis -0.00351404 -7.04812 0.0199272 xyz
    dof rx ry rz
  end
  begin
    id 11
    name LeftShoulder1Dummy
    direction 0.998904 -0.0399089 -0.0244534
    length 3.5433
    axis -0.00349562 0.000650293 0.0196666 xyz
  end
  begin
    id 12
    name LeftShoulder1
    direction 0.99951 1.64443e-005 0.0312999
    length 4.05031
    axis -0.00349562 0.000650293 0.0196666 xyz
    dof rx ry rz
  end
  begin
    id 13
    name LeftArm
    direction 0.984791 0.0515299 0.165927
    length 12.9126
    axis -64.823 -10.7743 5.20463 xyz
    dof rx ry rz
  end
  begin
    id 14
    name LeftForeArm
    direction 0.984968 0.0534808 0.16425
    length 10.8596
    axis -30.0462 -7.70601 1.87451 xyz
    dof rx ry rz
  end
  begin
    id 15
    name LeftHand
    direction 0.975871 0.0289682 0.216418
    length 6.62295
    axis -20.1348 -6.98077 1.86072 xyz
    dof rx ry rz
  end
  begin
    id 16
    name RightShoulderDummy
    direction -0.998877 -0.0405946 -0.0244307
    length 3.5433
    axis -0.00349562 0.000650293 0.0196666 xyz
  end
  begin
    id 17
    name RightShoulder
    direction -0.998933 -0.0249743 -0.0388558
    length 4.05031
    axis -0.0205316 -4.02113 1.41395 xyz
    dof rx ry rz
  end
  begin
    id 18
    name RightArm
    direction -0.997559 0.068664 0.0127103
    length 12.9638
    axis -67.3882 1.84188 -6.15987 xyz
    dof rx ry rz
  end
  begin
    id 19
    name RightForeArm
    direction -0.991508 0.0912848 0.0926241
    length 10.8312
    axis -22.1975 3.41087 -4.28711 xyz
    dof rx ry rz
  end
  begin
    id 20
    name RightHand
    direction -0.989262 0.0600788 0.133232
    length 6.57864
    axis -12.2911 2.17515 -4.39675 xyz
    dof rx ry rz
  end
  begin
    id 21
    name LeftUpLegDummy
    direction 0.718183 -0.695806 0.00816078
    length 4.904
    axis 0 0 0 xyz
  end
  begin
    id 22
    name LeftUpLeg
    direction 0.0831398 -0.99469 0.0606531
    length 17.4976
    axis -1.71016 2.29552 4.63832 xyz
    dof rx ry rz
  end
  begin
    id 23
    name LeftLeg
    direction 0.0498442 -0.991778 -0.117862
    length 16.5821
    axis 5.13757 15.5727 5.13348 xyz
    dof rx ry rz
  end
  begin
    id 24
    name LeftFoot
    direction 0.269026 -0.433896 0.85986
    length 3.77069
    axis -0.576502 15.6961 4.10267 xyz
    dof rx ry rz
  end
  begin
    id 25
    name LeftToes
    direction 0.277311 0.0251143 0.960452
    length 3.85048
    axis -0.576502 15.6961 4.10267 xyz
    dof rx ry rz
  end
:hierarchy
  begin
    root RightUpLegDummy SpineDummy LeftUpLegDummy
    RightUpLegDummy RightUpLeg
    RightUpLeg RightLeg
    RightLeg RightFoot
    RightFoot RightToes
    SpineDummy Spine
    Spine Spine1
    Spine1 HEadDummy LeftShoulder1Dummy RightShoulderDummy
    HEadDummy HEad
    LeftShoulder1Dummy LeftShoulder1
    LeftShoulder1 LeftArm
    LeftArm LeftForeArm
    LeftForeArm LeftHand
    RightShoulderDummy RightShoulder
    RightShoulder RightArm
    RightArm RightForeArm
    RightForeArm RightHand
    LeftUpLegDummy LeftUpLeg
    LeftUpLeg LeftLeg
    LeftLeg LeftFoot
    LeftFoot LeftToes
  end

:SAMPLES-PER-SECOND 30
:FULLY-SPECIFIED
:DEGREES
1
root  -5.58051 40.5359 86.4131 178.565 8.86795 -179.789
RightUpLeg  0.366093 -1.47914 -0.480855
RightLeg  2.47507 -2.65576 0.21208
RightFoot  -0.644276 -0.119701 0.989719
RightToes  -5.82073e-011 -3.18055e-015 -2.98177e-016
Spine  -4.19535 0.482905 -2.30366
Spine1  11.6212 -0.0367436 3.05896
HEad  -7.58065 -4.8091 1.215
LeftShoulder1  -3.88251e-019 9.70628e-020 -3.87848e-018
LeftArm  -26.877 55.6333 -72.208
LeftForeArm  7.30809 -12.48 -3.20981
LeftHand  -0.608166 -3.56733 8.45653
RightShoulder  7.85234 10.6425 36.9054
RightArm  6.98005 -41.4031 18.7308
RightForeArm  16.77 15.3814 -6.52948
RightHand  -1.02803 1.94787 -15.9933
LeftUpLeg  0.22773 -2.64238 -2.83407
LeftLeg  3.98069 14.691 3.66218
LeftFoot  -2.03264 0.214801 -2.32037
LeftToes  -2.27483e-011 -5.53417e-011 9.36564e-012
2
root  -5.58254 40.5359 86.4285 178.607 8.65918 -179.764
RightUpLeg  0.346094 -1.48829 -0.465523
RightLeg  2.45854 -2.86036 0.231804
RightFoot  -0.624263 -0.121013 1.00317
RightToes  -5.82073e-011 -3.18055e-015 -2.98177e-016
Spine  -4.21665 0.380438 -2.3707
Spine1  11.6774 -0.163006 3.133
HEad  -7.66082 -4.66996 1.20948
LeftShoulder1  -3.88251e-019 9.70628e-020 -3.87848e-018
LeftArm  -26.8717 55.5538 -72.2098
LeftForeArm  7.23676 -12.4914 -3.21098
LeftHand  -0.610316 -3.58069 8.473
RightShoulder  7.84826 10.6408 36.8888
RightArm  6.71321 -41.3978 18.8509
RightForeArm  16.9062 15.2816 -6.52774
RightHand  -1.02364 1.93634 -15.9501
LeftUpLeg  0.0805111 -2.67673 -2.82529
LeftLeg  4.06652 14.5143 3.73497
LeftFoot  -2.03083 0.211682 -2.28757
LeftToes  -2.27483e-011 -5.53417e-011 9.36564e-012
3
root  -5.5865 40.5359 86.4488 178.566 8.45708 -179.807
RightUpLeg  0.339752 -1.56108 -0.534667
RightLeg  2.54865 -2.97682 0.218636
RightFoot  -0.65243 -0.121448 1.00762
RightToes  -5.82073e-011 -3.18055e-015 -2.98177e-016
Spine  -4.17426 0.264155 -2.53064
Spine1  11.8005 -0.310406 3.26285
HEad  -7.8341 -4.40694 1.15693
LeftShoulder1  -3.88251e-019 9.70628e-020 -3.87848e-018
LeftArm  -26.8062 55.4107 -72.2118
LeftForeArm  6.82548 -12.5695 -3.25662
LeftHand  -0.580531 -3.12491 8.50236
RightShoulder  7.82871 10.6317 36.8123
RightArm  6.40679 -41.4319 19.0771
RightForeArm  17.0742 15.1766 -6.52538
RightHand  -1.06203 2.11771 -16.1539
LeftUpLeg  0.0389129 -2.75411 -2.89225
LeftLeg  4.09481 14.399 3.77536
LeftFoot  -2.00511 0.207459 -2.24318
LeftToes  -2.27483e-011 -5.53417e-011 9.36564e-012
4
root  -5.58978 40.536 86.4598 178.414 8.45816 -179.906
RightUpLeg  0.390221 -1.65437 -0.6595
RightLeg  2.69693 -2.85644 0.168302
RightFoot  -0.716536 -0.11995 0.992277
RightToes  -5.82073e-011 -3.18055e-015 -2.98177e-016
Spine  -4.04174 0.227042 -2.6788
Spine1  11.9118 -0.361844 3.35113
HEad  -7.99995 -4.14595 1.05925
LeftShoulder1  -3.88251e-019 9.70628e-020 -3.87848e-018
LeftArm  -26.713 55.3049 -72.1897
LeftForeArm  6.33433 -12.6698 -3.31744
LeftHand  -0.536089 -2.43733 8.55628
RightShoulder  7.80105 10.6175 36.7065
RightArm  6.31496 -41.5403 19.2527
RightForeArm  17.1902 15.1795 -6.5511
RightHand  -1.10945 2.38494 -16.3072
LeftUpLeg  0.216764 -2.8099 -3.00138
LeftLeg  4.01524 14.4703 3.72541
LeftFoot  -1.97139 0.205672 -2.2244
LeftToes  -2.27483e-011 -5.53417e-011 9.36564e-012
5
root  -5.59257 40.5362 86.461 178.294 8.61536 -179.961
RightUpLeg  0.44657 -1.67478 -0.715169
RightLeg  2.75487 -2.66697 0.128137
RightFoot  -0.737421 -0.118579 0.978231
RightToes  -5.82073e-011 -3.18055e-015 -2.98177e-016
Spine  -3.99073 0.269279 -2.70356
Spine1  12.0394 -0.318474 3.35527
HEad  -8.07467 -3.94988 0.986811
LeftShoulder1  -3.88251e-019 9.70628e-020 -3.87848e-018
LeftArm  -26.7095 55.2494 -72.1694
LeftForeArm  6.31368 -12.6662 -3.31975
LeftHand  -0.534464 -2.33111 8.64896
RightShoulder  7.78001 10.6051 36.6297
RightArm  6.43413 -41.6831 19.2702
RightForeArm  17.2141 15.2914 -6.62451
RightHand  -1.11879 2.52301 -16.1648
LeftUpLeg  0.409165 -2.79612 -3.04684
LeftLeg  3.93181 14.6173 3.65086
LeftFoot  -1.96007 0.205273 -2.2202
LeftToes  -2.27483e-011 -5.53417e-011 9.36564e-012
6
root  -5.59732 40.5364 86.46 178.305 8.79727 -179.942
RightUpLeg  0.42368 -1.62263 -0.680786
RightLeg  2.71277 -2.54998 0.120459
RightFoot  -0.697834 -0.119703 0.989739
RightToes  -5.82073e-011 -3.18055e-015 -2.98177e-016
Spine  -4.15689 0.348363 -2.63251
Spine1  12.2684 -0.24075 3.33664
HEad  -8.07777 -3.86219 0.990717
LeftShoulder1  -3.88251e-019 9.70628e-020 -3.87848e-018
LeftArm  -26.8095 55.1813 -72.2031
LeftForeArm  6.73113 -12.5649 -3.26474
LeftHand  -0.578068 -2.84237 8.75633
RightShoulder  7.76485 10.596 36.5743
RightArm  6.66929 -41.7634 19.1837
RightForeArm  17.0837 15.4201 -6.66979
RightHand  -1.11719 2.55797 -16.0736
LeftUpLeg  0.438799 -2.7502 -3.02035
LeftLeg  3.91353 14.7462 3.62014
LeftFoot  -1.9663 0.204722 -2.21441
LeftToes  -2.27483e-011 -5.53417e-011 9.36564e-012
7
root  -5.60436 40.5369 86.4621 178.37 8.92157 -179.917
RightUpLeg  0.353637 -1.5848 -0.64973
RightLeg  2.66412 -2.48272 0.134994
RightFoot  -0.651124 -0.122395 1.01733
RightToes  -5.82073e-011 -3.18055e-015 -2.98177e-016
Spine  -4.40168 0.41932 -2.56203
Spine1  12.5319 -0.175849 3.33784
HEad  -8.07367 -3.93253 1.05468
LeftShoulder1  -3.88251e-019 9.70628e-020 -3.87848e-018
LeftArm  -26.856 55.0907 -72.261
LeftForeArm  6.98324 -12.5124 -3.23992
LeftHand  -0.604524 -3.13 8.83806
RightShoulder  7.75162 10.5911 36.5194
RightArm  7.057 -41.7541 19.0736
RightForeArm  16.6968 15.5724 -6.65529
RightHand  -1.12671 2.60933 -16.1116
LeftUpLeg  0.377663 -2.73695 -3.00266
LeftLeg  3.92451 14.8528 3.62898
LeftFoot  -1.964 0.205036 -2.2177
LeftToes  -2.27483e-011 -5.53417e-011 9.36564e-012
8
root  -5.61123 40.5378 86.4666 178.385 9.00079 -179.918
RightUpLeg  0.332689 -1.58843 -0.660529
RightLeg  2.62829 -2.40872 0.158026
RightFoot  -0.621696 -0.12339 1.02752
RightToes  -5.82073e-011 -3.18055e-015 -2.98177e-016
Spine  -4.47871 0.474614 -2.48892
Spine1  12.617 -0.109723 3.29248
HEad  -8.03696 -4.13548 1.1515
LeftShoulder1  -3.88251e-019 9.70628e-020 -3.87848e-018
LeftArm  -26.7341 55.0391 -72.2561
LeftForeArm  6.86435 -12.5448 -3.29663
LeftHand  -0.591581 -2.88095 8.91473
RightShoulder  7.75468 10.597 36.5213
RightArm  8.04303 -41.8118 18.8098
RightForeArm  15.414 16.1393 -6.89887
RightHand  -1.06888 2.47385 -15.5404
LeftUpLeg  0.361982 -2.75143 -3.019
LeftLeg  3.92566 14.9479 3.6408
LeftFoot  -1.95207 0.206094 -2.22883
LeftToes  -2.27483e-011 -5.53417e-011 9.36564e-012
9
root  -5.61706 40.5386 86.4732 178.389 9.12721 -179.918
RightUpLeg  0.317352 -1.56977 -0.657998
RightLeg  2.57874 -2.30467 0.170695
RightFoot  -0.581817 -0.121504 1.0082
RightToes  -5.82073e-011 -3.18055e-015 -2.98177e-016
Spine  -4.37017 0.56273 -2.35232
Spine1  12.4327 0.0147821 3.15556
HEad  -7.87785 -4.34875 1.27524
LeftShoulder1  -3.88251e-019 9.70628e-020 -3.87848e-018
LeftArm  -26.5593 55.0496 -72.1944
LeftForeArm  6.80133 -12.5382 -3.37488
LeftHand  -0.588071 -2.71654 9.04222
RightShoulder  7.78482 10.6164 36.6281
RightArm  10.5881 -42.1915 18.1512
RightForeArm  11.6286 17.7521 -8.12361
RightHand  -0.880218 1.7975 -13.9723
LeftUpLeg  0.361733 -2.74205 -3.02299
LeftLeg  3.93272 15.0638 3.63935
LeftFoot  -1.94704 0.205102 -2.2184
LeftToes  -2.27483e-011 -5.53417e-011 9.36564e-012
10
root  -5.62339 40.5395 86.4828 178.472 9.37134 -179.904
RightUpLeg  0.182095 -1.49843 -0.616342
RightLeg  2.54653 -2.14198 0.15626
RightFoot  -0.521438 -0.11871 0.979568
RightToes  -5.82073e-011 -3.18055e-015 -2.98177e-016
Spine  -4.27136 0.717617 -2.18421
Spine1  12.1336 0.207553 3.01661
HEad  -7.60466 -4.4741 1.38921
LeftShoulder1  -3.88251e-019 9.70628e-020 -3.87848e-018
LeftArm  -26.5229 55.0926 -72.1716
LeftForeArm  6.99515 -12.4586 -3.3844
LeftHand  -0.608786 -2.92281 9.12157
RightShoulder  7.81765 10.6355 36.7486
RightArm  14.659 -42.9584 17.0647
RightForeArm  4.92813 20.6895 -10.6806
RightHand  -0.672818 0.845231 -12.3018
LeftUpLeg  0.287412 -2.70053 -2.99979
LeftLeg  3.95056 15.2599 3.6225
LeftFoot  -1.9467 0.201778 -2.18346
LeftToes  -2.27483e-011 -5.53417e-011 9.36564e-012
11
root  -5.63028 40.5408 86.4908 178.586 9.64459 -179.889
RightUpLeg  0.00600517 -1.4287 -0.573605
RightLeg  2.52847 -1.95375 0.14285
RightFoot  -0.461782 -0.117001 0.962056
RightToes  -5.82073e-011 -3.18055e-015 -2.98177e-016
Spine  -4.26462 0.862935 -2.07701
Spine1  11.8924 0.36728 2.97362
HEad  -7.31963 -4.4978 1.41254
LeftShoulder1  -3.88251e-019 9.70628e-020 -3.87848e-018
LeftArm  -26.6139 55.179 -72.1914
LeftForeArm  7.0976 -12.421 -3.32067
LeftHand  -0.601164 -2.9542 8.97385
RightShoulder  7.81781 10.6364 36.7474
RightArm  17.3837 -43.7995 15.7747
RightForeArm  -0.89073 24.7448 -13.3495
RightHand  -0.605256 0.593892 -11.5165
LeftUpLeg  0.193869 -2.66168 -2.97557
LeftLeg  3.95207 15.4869 3.59779
LeftFoot  -1.93996 0.199407 -2.15854
LeftToes  -2.27483e-011 -5.53417e-011 9.36564e-012
12
root  -5.63639 40.5428 86.4907 178.612 9.77145 -179.858
RightUpLeg  0.0161051 -1.40479 -0.546203
RightLeg  2.42582 -1.86481 0.185055
RightFoot  -0.404886 -0.116867 0.960684
RightToes  -5.82073e-011 -3.18055e-015 -2.98177e-016
Spine  -4.22128 0.875427 -2.04137
Spine1  11.6607 0.375884 2.98831
HEad  -6.99512 -4.42014 1.30212
LeftShoulder1  -3.88251e-019 9.70628e-020 -3.87848e-018
LeftArm  -26.6412 55.3574 -72.1331
LeftForeArm  6.99484 -12.4271 -3.25948
LeftHand  -0.561201 -2.64398 8.71858
RightShoulder  7.78795 10.6188 36.6382
RightArm  18.5131 -44.2873 14.7442
RightForeArm  -4.10227 28.9614 -15.3898
RightHand  -0.683465 1.37545 -11.5365
LeftUpLeg  0.191489 -2.63813 -2.94925
LeftLeg  3.94067 15.5839 3.59079
LeftFoot  -1.94003 0.198627 -2.15034
LeftToes  -2.27483e-011 -5.53417e-011 9.36564e-012
